<svg width="29" height="29" viewBox="0 0 29 29" fill="none" xmlns="http://www.w3.org/2000/svg">
<g clip-path="url(#clip0)">
<path d="M24.6095 8.04719C24.4413 7.8741 24.1932 7.80462 23.9596 7.86523C23.0608 8.07901 22.122 8.05752 21.2339 7.80283C19.925 7.46737 18.8059 6.62014 18.1279 5.45143C17.3467 4.09677 16.0529 3.1138 14.5384 2.72437C13.3289 2.3744 12.0402 2.4112 10.8526 2.82971L10.94 2.51772C11.1123 1.90247 10.7532 1.26401 10.1379 1.09172C9.52256 0.919438 8.88415 1.27855 8.71187 1.89385L3.09698 21.947C2.92471 22.5622 3.2838 23.2007 3.8991 23.373C4.51436 23.5453 5.15282 23.1862 5.3251 22.5709L8.02857 12.9156C8.15487 12.9386 8.28509 12.925 8.40392 12.8766C9.46961 12.4733 10.6379 12.4292 11.731 12.7509C13.0425 13.0859 14.1644 13.9339 14.8444 15.1044C15.624 16.457 16.9149 17.439 18.4265 17.8294C19.5746 18.1653 20.7967 18.152 21.9373 17.7912C22.1836 17.706 22.3702 17.5022 22.4334 17.2493L24.7989 8.80105C24.8762 8.53398 24.8039 8.24598 24.6095 8.04719Z" fill="#B8B8B8"/>
</g>
<defs>
<clipPath id="clip0">
<rect x="6.23877" width="23.1382" height="23.1382" transform="rotate(15.6423 6.23877 0)" fill="white"/>
</clipPath>
</defs>
</svg>
