<svg width="42" height="42" viewBox="0 0 42 42" fill="none" xmlns="http://www.w3.org/2000/svg">
<path d="M32.8125 15.4219H29.8563V8.67645C29.8563 3.89222 25.882 0 20.997 0C16.1119 0 12.1376 3.89222 12.1376 8.67645V15.4219H9.1875C6.47358 15.4219 4.26562 17.6298 4.26562 20.3438V37.0781C4.26562 39.792 6.47358 42 9.1875 42H32.8125C35.5264 42 37.7344 39.792 37.7344 37.0781V20.3438C37.7344 17.6298 35.5264 15.4219 32.8125 15.4219ZM15.4188 8.67645C15.4188 5.7015 17.9212 3.28125 20.997 3.28125C24.0727 3.28125 26.5751 5.7015 26.5751 8.67645V15.4219H15.4188V8.67645ZM34.4531 37.0781C34.4531 37.9828 33.7171 38.7188 32.8125 38.7188H9.1875C8.28286 38.7188 7.54688 37.9828 7.54688 37.0781V20.3438C7.54688 19.4391 8.28286 18.7031 9.1875 18.7031H32.8125C33.7171 18.7031 34.4531 19.4391 34.4531 20.3438V37.0781Z" fill="#BEBEBE"/>
<path d="M21 23.4609C19.3237 23.4609 17.9648 24.8198 17.9648 26.4961C17.9648 27.5664 18.5194 28.5067 19.3563 29.0471V32.6484C19.3563 33.5545 20.0908 34.2891 20.997 34.2891C21.903 34.2891 22.6376 33.5545 22.6376 32.6484V29.051C23.4779 28.5112 24.0352 27.5691 24.0352 26.4961C24.0352 24.8198 22.6763 23.4609 21 23.4609Z" fill="#BEBEBE"/>
</svg>
