<svg width="23" height="21" viewBox="0 0 23 21" fill="none" xmlns="http://www.w3.org/2000/svg">
<path d="M0.524398 8.40967H3.66098C3.95014 8.40967 4.18538 8.64491 4.18538 8.93407V20.4316C4.18538 20.7208 3.95014 20.956 3.66098 20.956H0.524398C0.235244 20.956 0 20.7208 0 20.4316V8.93407C0 8.64491 0.235244 8.40967 0.524398 8.40967Z" fill="#B8B8B8"/>
<path d="M23 9.45363C23 8.29701 22.0639 7.36093 20.9073 7.36093H14.7567C14.5263 7.36093 14.3499 7.14529 14.3989 6.91985L15.3056 2.58254C15.3252 2.47962 15.3399 2.3669 15.3399 2.25418C15.3399 1.818 15.1634 1.42592 14.8792 1.14657L14.3744 0.646676C14.0362 0.313414 13.4971 0.313414 13.1639 0.651577L6.88581 6.92965C6.50844 7.31192 6.27319 7.83632 6.27319 8.40973V18.8634C6.27319 20.02 7.20927 20.9561 8.36588 20.9561H17.7756C18.6431 20.9561 19.388 20.4268 19.7017 19.6818L22.853 12.3109C22.9461 12.0707 23.0049 11.8159 23.0049 11.5463V9.54184L22.9951 9.53204L23 9.45363Z" fill="#B8B8B8"/>
</svg>
