<svg width="23" height="23" viewBox="0 0 23 23" fill="none" xmlns="http://www.w3.org/2000/svg">
<g clip-path="url(#clip0)">
<path d="M22.4756 13.5903L19.339 13.5903C19.0499 13.5903 18.8146 13.3551 18.8146 13.0659L18.8146 1.56839C18.8146 1.27923 19.0499 1.04399 19.339 1.04399L22.4756 1.04399C22.7648 1.04399 23 1.27923 23 1.56839L23 13.0659C23 13.3551 22.7648 13.5903 22.4756 13.5903Z" fill="#B8B8B8"/>
<path d="M1.03285e-05 12.5464C1.02274e-05 13.703 0.936082 14.6391 2.0927 14.6391L8.24334 14.6391C8.47368 14.6391 8.65011 14.8547 8.6011 15.0801L7.69443 19.4175C7.67483 19.5204 7.66013 19.6331 7.66013 19.7458C7.66013 20.182 7.83656 20.5741 8.12081 20.8534L8.62561 21.3533C8.96377 21.6866 9.50287 21.6866 9.83613 21.3484L16.1142 15.0703C16.4916 14.6881 16.7268 14.1637 16.7268 13.5903L16.7268 3.13661C16.7268 1.97999 15.7907 1.04392 14.6341 1.04392L5.22438 1.04392C4.35692 1.04392 3.61198 1.57322 3.29832 2.31816L0.147037 9.68914C0.0539199 9.92928 -0.00489135 10.1841 -0.00489137 10.4537L-0.00489155 12.4582L0.00491031 12.468L1.03285e-05 12.5464Z" fill="#B8B8B8"/>
</g>
<defs>
<clipPath id="clip0">
<rect x="23" y="23" width="23" height="23" transform="rotate(-180 23 23)" fill="white"/>
</clipPath>
</defs>
</svg>
